<?xml version="1.0" encoding="UTF-8"?>
<svg xmlns="http://www.w3.org/2000/svg" xmlns:xlink="http://www.w3.org/1999/xlink" width="504pt" height="360pt" viewBox="0 0 504 360" version="1.1">
<g id="surface1">
<rect x="0" y="0" width="504" height="360" style="fill:rgb(100%,100%,100%);fill-opacity:1;stroke:none;"/>
<path style="fill:none;stroke-width:0.75;stroke-linecap:round;stroke-linejoin:round;stroke:rgb(0%,0%,0%);stroke-opacity:1;stroke-miterlimit:10;" d="M 269.101562 172.800781 C 269.101562 176.398438 263.699219 176.398438 263.699219 172.800781 C 263.699219 169.199219 269.101562 169.199219 269.101562 172.800781 "/>
<path style="fill:none;stroke-width:0.75;stroke-linecap:round;stroke-linejoin:round;stroke:rgb(0%,0%,0%);stroke-opacity:1;stroke-miterlimit:10;" d="M 74.398438 286.558594 L 458.398438 286.558594 "/>
<path style="fill:none;stroke-width:0.75;stroke-linecap:round;stroke-linejoin:round;stroke:rgb(0%,0%,0%);stroke-opacity:1;stroke-miterlimit:10;" d="M 74.398438 286.558594 L 74.398438 293.761719 "/>
<path style="fill:none;stroke-width:0.75;stroke-linecap:round;stroke-linejoin:round;stroke:rgb(0%,0%,0%);stroke-opacity:1;stroke-miterlimit:10;" d="M 170.398438 286.558594 L 170.398438 293.761719 "/>
<path style="fill:none;stroke-width:0.75;stroke-linecap:round;stroke-linejoin:round;stroke:rgb(0%,0%,0%);stroke-opacity:1;stroke-miterlimit:10;" d="M 266.398438 286.558594 L 266.398438 293.761719 "/>
<path style="fill:none;stroke-width:0.75;stroke-linecap:round;stroke-linejoin:round;stroke:rgb(0%,0%,0%);stroke-opacity:1;stroke-miterlimit:10;" d="M 362.398438 286.558594 L 362.398438 293.761719 "/>
<path style="fill:none;stroke-width:0.75;stroke-linecap:round;stroke-linejoin:round;stroke:rgb(0%,0%,0%);stroke-opacity:1;stroke-miterlimit:10;" d="M 458.398438 286.558594 L 458.398438 293.761719 "/>
<path style="fill:none;stroke-width:1;stroke-linecap:round;stroke-linejoin:miter;stroke:rgb(0%,0%,0%);stroke-opacity:1;stroke-miterlimit:2;" d="M 60.898438 299.980469 L 67.898438 299.980469 L 67.898438 310.980469 L 60.898438 310.980469 Z M 60.898438 299.980469 "/>
<path style="fill:none;stroke-width:1;stroke-linecap:round;stroke-linejoin:miter;stroke:rgb(0%,0%,0%);stroke-opacity:1;stroke-miterlimit:2;" d="M 70.898438 299.980469 L 77.898438 299.980469 L 77.898438 310.980469 L 70.898438 310.980469 Z M 70.898438 299.980469 "/>
<path style="fill:none;stroke-width:1;stroke-linecap:round;stroke-linejoin:miter;stroke:rgb(0%,0%,0%);stroke-opacity:1;stroke-miterlimit:2;" d="M 80.898438 299.980469 L 87.898438 299.980469 L 87.898438 310.980469 L 80.898438 310.980469 Z M 80.898438 299.980469 "/>
<path style="fill:none;stroke-width:1;stroke-linecap:round;stroke-linejoin:miter;stroke:rgb(0%,0%,0%);stroke-opacity:1;stroke-miterlimit:2;" d="M 156.898438 299.980469 L 163.898438 299.980469 L 163.898438 310.980469 L 156.898438 310.980469 Z M 156.898438 299.980469 "/>
<path style="fill:none;stroke-width:1;stroke-linecap:round;stroke-linejoin:miter;stroke:rgb(0%,0%,0%);stroke-opacity:1;stroke-miterlimit:2;" d="M 166.898438 299.980469 L 173.898438 299.980469 L 173.898438 310.980469 L 166.898438 310.980469 Z M 166.898438 299.980469 "/>
<path style="fill:none;stroke-width:1;stroke-linecap:round;stroke-linejoin:miter;stroke:rgb(0%,0%,0%);stroke-opacity:1;stroke-miterlimit:2;" d="M 176.898438 299.980469 L 183.898438 299.980469 L 183.898438 310.980469 L 176.898438 310.980469 Z M 176.898438 299.980469 "/>
<path style="fill:none;stroke-width:1;stroke-linecap:round;stroke-linejoin:miter;stroke:rgb(0%,0%,0%);stroke-opacity:1;stroke-miterlimit:2;" d="M 252.898438 299.980469 L 259.898438 299.980469 L 259.898438 310.980469 L 252.898438 310.980469 Z M 252.898438 299.980469 "/>
<path style="fill:none;stroke-width:1;stroke-linecap:round;stroke-linejoin:miter;stroke:rgb(0%,0%,0%);stroke-opacity:1;stroke-miterlimit:2;" d="M 262.898438 299.980469 L 269.898438 299.980469 L 269.898438 310.980469 L 262.898438 310.980469 Z M 262.898438 299.980469 "/>
<path style="fill:none;stroke-width:1;stroke-linecap:round;stroke-linejoin:miter;stroke:rgb(0%,0%,0%);stroke-opacity:1;stroke-miterlimit:2;" d="M 272.898438 299.980469 L 279.898438 299.980469 L 279.898438 310.980469 L 272.898438 310.980469 Z M 272.898438 299.980469 "/>
<path style="fill:none;stroke-width:1;stroke-linecap:round;stroke-linejoin:miter;stroke:rgb(0%,0%,0%);stroke-opacity:1;stroke-miterlimit:2;" d="M 348.898438 299.980469 L 355.898438 299.980469 L 355.898438 310.980469 L 348.898438 310.980469 Z M 348.898438 299.980469 "/>
<path style="fill:none;stroke-width:1;stroke-linecap:round;stroke-linejoin:miter;stroke:rgb(0%,0%,0%);stroke-opacity:1;stroke-miterlimit:2;" d="M 358.898438 299.980469 L 365.898438 299.980469 L 365.898438 310.980469 L 358.898438 310.980469 Z M 358.898438 299.980469 "/>
<path style="fill:none;stroke-width:1;stroke-linecap:round;stroke-linejoin:miter;stroke:rgb(0%,0%,0%);stroke-opacity:1;stroke-miterlimit:2;" d="M 368.898438 299.980469 L 375.898438 299.980469 L 375.898438 310.980469 L 368.898438 310.980469 Z M 368.898438 299.980469 "/>
<path style="fill:none;stroke-width:1;stroke-linecap:round;stroke-linejoin:miter;stroke:rgb(0%,0%,0%);stroke-opacity:1;stroke-miterlimit:2;" d="M 444.898438 299.980469 L 451.898438 299.980469 L 451.898438 310.980469 L 444.898438 310.980469 Z M 444.898438 299.980469 "/>
<path style="fill:none;stroke-width:1;stroke-linecap:round;stroke-linejoin:miter;stroke:rgb(0%,0%,0%);stroke-opacity:1;stroke-miterlimit:2;" d="M 454.898438 299.980469 L 461.898438 299.980469 L 461.898438 310.980469 L 454.898438 310.980469 Z M 454.898438 299.980469 "/>
<path style="fill:none;stroke-width:1;stroke-linecap:round;stroke-linejoin:miter;stroke:rgb(0%,0%,0%);stroke-opacity:1;stroke-miterlimit:2;" d="M 464.898438 299.980469 L 471.898438 299.980469 L 471.898438 310.980469 L 464.898438 310.980469 Z M 464.898438 299.980469 "/>
<path style="fill:none;stroke-width:0.75;stroke-linecap:round;stroke-linejoin:round;stroke:rgb(0%,0%,0%);stroke-opacity:1;stroke-miterlimit:10;" d="M 59.039062 278.132812 L 59.039062 67.464844 "/>
<path style="fill:none;stroke-width:0.75;stroke-linecap:round;stroke-linejoin:round;stroke:rgb(0%,0%,0%);stroke-opacity:1;stroke-miterlimit:10;" d="M 59.039062 278.132812 L 51.839844 278.132812 "/>
<path style="fill:none;stroke-width:0.75;stroke-linecap:round;stroke-linejoin:round;stroke:rgb(0%,0%,0%);stroke-opacity:1;stroke-miterlimit:10;" d="M 59.039062 225.464844 L 51.839844 225.464844 "/>
<path style="fill:none;stroke-width:0.75;stroke-linecap:round;stroke-linejoin:round;stroke:rgb(0%,0%,0%);stroke-opacity:1;stroke-miterlimit:10;" d="M 59.039062 172.800781 L 51.839844 172.800781 "/>
<path style="fill:none;stroke-width:0.75;stroke-linecap:round;stroke-linejoin:round;stroke:rgb(0%,0%,0%);stroke-opacity:1;stroke-miterlimit:10;" d="M 59.039062 120.132812 L 51.839844 120.132812 "/>
<path style="fill:none;stroke-width:0.75;stroke-linecap:round;stroke-linejoin:round;stroke:rgb(0%,0%,0%);stroke-opacity:1;stroke-miterlimit:10;" d="M 59.039062 67.464844 L 51.839844 67.464844 "/>
<path style="fill:none;stroke-width:1;stroke-linecap:round;stroke-linejoin:miter;stroke:rgb(0%,0%,0%);stroke-opacity:1;stroke-miterlimit:2;" d="M -291.632812 29.261719 L -284.632812 29.261719 L -284.632812 40.261719 L -291.632812 40.261719 Z M -291.632812 29.261719 " transform="matrix(0.000000000000000061,-1,1,0.000000000000000061,0,0)"/>
<path style="fill:none;stroke-width:1;stroke-linecap:round;stroke-linejoin:miter;stroke:rgb(0%,0%,0%);stroke-opacity:1;stroke-miterlimit:2;" d="M -281.632812 29.261719 L -274.632812 29.261719 L -274.632812 40.261719 L -281.632812 40.261719 Z M -281.632812 29.261719 " transform="matrix(0.000000000000000061,-1,1,0.000000000000000061,0,0)"/>
<path style="fill:none;stroke-width:1;stroke-linecap:round;stroke-linejoin:miter;stroke:rgb(0%,0%,0%);stroke-opacity:1;stroke-miterlimit:2;" d="M -271.632812 29.261719 L -264.632812 29.261719 L -264.632812 40.261719 L -271.632812 40.261719 Z M -271.632812 29.261719 " transform="matrix(0.000000000000000061,-1,1,0.000000000000000061,0,0)"/>
<path style="fill:none;stroke-width:1;stroke-linecap:round;stroke-linejoin:miter;stroke:rgb(0%,0%,0%);stroke-opacity:1;stroke-miterlimit:2;" d="M -238.964844 29.261719 L -231.964844 29.261719 L -231.964844 40.261719 L -238.964844 40.261719 Z M -238.964844 29.261719 " transform="matrix(0.000000000000000061,-1,1,0.000000000000000061,0,0)"/>
<path style="fill:none;stroke-width:1;stroke-linecap:round;stroke-linejoin:miter;stroke:rgb(0%,0%,0%);stroke-opacity:1;stroke-miterlimit:2;" d="M -228.964844 29.261719 L -221.964844 29.261719 L -221.964844 40.261719 L -228.964844 40.261719 Z M -228.964844 29.261719 " transform="matrix(0.000000000000000061,-1,1,0.000000000000000061,0,0)"/>
<path style="fill:none;stroke-width:1;stroke-linecap:round;stroke-linejoin:miter;stroke:rgb(0%,0%,0%);stroke-opacity:1;stroke-miterlimit:2;" d="M -218.964844 29.261719 L -211.964844 29.261719 L -211.964844 40.261719 L -218.964844 40.261719 Z M -218.964844 29.261719 " transform="matrix(0.000000000000000061,-1,1,0.000000000000000061,0,0)"/>
<path style="fill:none;stroke-width:1;stroke-linecap:round;stroke-linejoin:miter;stroke:rgb(0%,0%,0%);stroke-opacity:1;stroke-miterlimit:2;" d="M -186.300781 29.261719 L -179.300781 29.261719 L -179.300781 40.261719 L -186.300781 40.261719 Z M -186.300781 29.261719 " transform="matrix(0.000000000000000061,-1,1,0.000000000000000061,0,0)"/>
<path style="fill:none;stroke-width:1;stroke-linecap:round;stroke-linejoin:miter;stroke:rgb(0%,0%,0%);stroke-opacity:1;stroke-miterlimit:2;" d="M -176.300781 29.261719 L -169.300781 29.261719 L -169.300781 40.261719 L -176.300781 40.261719 Z M -176.300781 29.261719 " transform="matrix(0.000000000000000061,-1,1,0.000000000000000061,0,0)"/>
<path style="fill:none;stroke-width:1;stroke-linecap:round;stroke-linejoin:miter;stroke:rgb(0%,0%,0%);stroke-opacity:1;stroke-miterlimit:2;" d="M -166.300781 29.261719 L -159.300781 29.261719 L -159.300781 40.261719 L -166.300781 40.261719 Z M -166.300781 29.261719 " transform="matrix(0.000000000000000061,-1,1,0.000000000000000061,0,0)"/>
<path style="fill:none;stroke-width:1;stroke-linecap:round;stroke-linejoin:miter;stroke:rgb(0%,0%,0%);stroke-opacity:1;stroke-miterlimit:2;" d="M -133.632812 29.261719 L -126.632812 29.261719 L -126.632812 40.261719 L -133.632812 40.261719 Z M -133.632812 29.261719 " transform="matrix(0.000000000000000061,-1,1,0.000000000000000061,0,0)"/>
<path style="fill:none;stroke-width:1;stroke-linecap:round;stroke-linejoin:miter;stroke:rgb(0%,0%,0%);stroke-opacity:1;stroke-miterlimit:2;" d="M -123.632812 29.261719 L -116.632812 29.261719 L -116.632812 40.261719 L -123.632812 40.261719 Z M -123.632812 29.261719 " transform="matrix(0.000000000000000061,-1,1,0.000000000000000061,0,0)"/>
<path style="fill:none;stroke-width:1;stroke-linecap:round;stroke-linejoin:miter;stroke:rgb(0%,0%,0%);stroke-opacity:1;stroke-miterlimit:2;" d="M -113.632812 29.261719 L -106.632812 29.261719 L -106.632812 40.261719 L -113.632812 40.261719 Z M -113.632812 29.261719 " transform="matrix(0.000000000000000061,-1,1,0.000000000000000061,0,0)"/>
<path style="fill:none;stroke-width:1;stroke-linecap:round;stroke-linejoin:miter;stroke:rgb(0%,0%,0%);stroke-opacity:1;stroke-miterlimit:2;" d="M -80.964844 29.261719 L -73.964844 29.261719 L -73.964844 40.261719 L -80.964844 40.261719 Z M -80.964844 29.261719 " transform="matrix(0.000000000000000061,-1,1,0.000000000000000061,0,0)"/>
<path style="fill:none;stroke-width:1;stroke-linecap:round;stroke-linejoin:miter;stroke:rgb(0%,0%,0%);stroke-opacity:1;stroke-miterlimit:2;" d="M -70.964844 29.261719 L -63.964844 29.261719 L -63.964844 40.261719 L -70.964844 40.261719 Z M -70.964844 29.261719 " transform="matrix(0.000000000000000061,-1,1,0.000000000000000061,0,0)"/>
<path style="fill:none;stroke-width:1;stroke-linecap:round;stroke-linejoin:miter;stroke:rgb(0%,0%,0%);stroke-opacity:1;stroke-miterlimit:2;" d="M -60.964844 29.261719 L -53.964844 29.261719 L -53.964844 40.261719 L -60.964844 40.261719 Z M -60.964844 29.261719 " transform="matrix(0.000000000000000061,-1,1,0.000000000000000061,0,0)"/>
<path style="fill:none;stroke-width:0.75;stroke-linecap:round;stroke-linejoin:round;stroke:rgb(0%,0%,0%);stroke-opacity:1;stroke-miterlimit:10;" d="M 59.039062 286.558594 L 473.761719 286.558594 L 473.761719 59.039062 L 59.039062 59.039062 L 59.039062 286.558594 "/>
<path style="fill:none;stroke-width:1;stroke-linecap:round;stroke-linejoin:miter;stroke:rgb(0%,0%,0%);stroke-opacity:1;stroke-miterlimit:2;" d="M 242.898438 328.78125 L 249.898438 328.78125 L 249.898438 339.78125 L 242.898438 339.78125 Z M 242.898438 328.78125 "/>
<path style="fill:none;stroke-width:1;stroke-linecap:round;stroke-linejoin:miter;stroke:rgb(0%,0%,0%);stroke-opacity:1;stroke-miterlimit:2;" d="M 252.898438 328.78125 L 259.898438 328.78125 L 259.898438 339.78125 L 252.898438 339.78125 Z M 252.898438 328.78125 "/>
<path style="fill:none;stroke-width:1;stroke-linecap:round;stroke-linejoin:miter;stroke:rgb(0%,0%,0%);stroke-opacity:1;stroke-miterlimit:2;" d="M 262.898438 328.78125 L 269.898438 328.78125 L 269.898438 339.78125 L 262.898438 339.78125 Z M 262.898438 328.78125 "/>
<path style="fill:none;stroke-width:1;stroke-linecap:round;stroke-linejoin:miter;stroke:rgb(0%,0%,0%);stroke-opacity:1;stroke-miterlimit:2;" d="M 272.898438 328.78125 L 279.898438 328.78125 L 279.898438 339.78125 L 272.898438 339.78125 Z M 272.898438 328.78125 "/>
<path style="fill:none;stroke-width:1;stroke-linecap:round;stroke-linejoin:miter;stroke:rgb(0%,0%,0%);stroke-opacity:1;stroke-miterlimit:2;" d="M 282.898438 328.78125 L 289.898438 328.78125 L 289.898438 339.78125 L 282.898438 339.78125 Z M 282.898438 328.78125 "/>
<path style="fill:none;stroke-width:1;stroke-linecap:round;stroke-linejoin:miter;stroke:rgb(0%,0%,0%);stroke-opacity:1;stroke-miterlimit:2;" d="M -176.300781 0.460938 L -169.300781 0.460938 L -169.300781 11.460938 L -176.300781 11.460938 Z M -176.300781 0.460938 " transform="matrix(0.000000000000000061,-1,1,0.000000000000000061,0,0)"/>
</g>
</svg>
