<?xml version="1.0" encoding="UTF-8"?>
<svg xmlns="http://www.w3.org/2000/svg" xmlns:xlink="http://www.w3.org/1999/xlink" width="504pt" height="504pt" viewBox="0 0 504 504" version="1.1">
<g id="surface1">
<rect x="0" y="0" width="504" height="504" style="fill:rgb(100%,100%,100%);fill-opacity:1;stroke:none;"/>
<path style="fill:none;stroke-width:0.75;stroke-linecap:round;stroke-linejoin:round;stroke:rgb(0%,0%,0%);stroke-opacity:1;stroke-miterlimit:10;" d="M 269.101562 244.800781 C 269.101562 248.398438 263.699219 248.398438 263.699219 244.800781 C 263.699219 241.199219 269.101562 241.199219 269.101562 244.800781 "/>
<path style="fill:none;stroke-width:0.75;stroke-linecap:round;stroke-linejoin:round;stroke:rgb(0%,0%,0%);stroke-opacity:1;stroke-miterlimit:10;" d="M 74.398438 430.558594 L 458.398438 430.558594 "/>
<path style="fill:none;stroke-width:0.75;stroke-linecap:round;stroke-linejoin:round;stroke:rgb(0%,0%,0%);stroke-opacity:1;stroke-miterlimit:10;" d="M 74.398438 430.558594 L 74.398438 437.761719 "/>
<path style="fill:none;stroke-width:0.75;stroke-linecap:round;stroke-linejoin:round;stroke:rgb(0%,0%,0%);stroke-opacity:1;stroke-miterlimit:10;" d="M 170.398438 430.558594 L 170.398438 437.761719 "/>
<path style="fill:none;stroke-width:0.75;stroke-linecap:round;stroke-linejoin:round;stroke:rgb(0%,0%,0%);stroke-opacity:1;stroke-miterlimit:10;" d="M 266.398438 430.558594 L 266.398438 437.761719 "/>
<path style="fill:none;stroke-width:0.75;stroke-linecap:round;stroke-linejoin:round;stroke:rgb(0%,0%,0%);stroke-opacity:1;stroke-miterlimit:10;" d="M 362.398438 430.558594 L 362.398438 437.761719 "/>
<path style="fill:none;stroke-width:0.75;stroke-linecap:round;stroke-linejoin:round;stroke:rgb(0%,0%,0%);stroke-opacity:1;stroke-miterlimit:10;" d="M 458.398438 430.558594 L 458.398438 437.761719 "/>
<path style="fill:none;stroke-width:1;stroke-linecap:round;stroke-linejoin:miter;stroke:rgb(0%,0%,0%);stroke-opacity:1;stroke-miterlimit:2;" d="M 60.898438 443.980469 L 67.898438 443.980469 L 67.898438 454.980469 L 60.898438 454.980469 Z M 60.898438 443.980469 "/>
<path style="fill:none;stroke-width:1;stroke-linecap:round;stroke-linejoin:miter;stroke:rgb(0%,0%,0%);stroke-opacity:1;stroke-miterlimit:2;" d="M 70.898438 443.980469 L 77.898438 443.980469 L 77.898438 454.980469 L 70.898438 454.980469 Z M 70.898438 443.980469 "/>
<path style="fill:none;stroke-width:1;stroke-linecap:round;stroke-linejoin:miter;stroke:rgb(0%,0%,0%);stroke-opacity:1;stroke-miterlimit:2;" d="M 80.898438 443.980469 L 87.898438 443.980469 L 87.898438 454.980469 L 80.898438 454.980469 Z M 80.898438 443.980469 "/>
<path style="fill:none;stroke-width:1;stroke-linecap:round;stroke-linejoin:miter;stroke:rgb(0%,0%,0%);stroke-opacity:1;stroke-miterlimit:2;" d="M 156.898438 443.980469 L 163.898438 443.980469 L 163.898438 454.980469 L 156.898438 454.980469 Z M 156.898438 443.980469 "/>
<path style="fill:none;stroke-width:1;stroke-linecap:round;stroke-linejoin:miter;stroke:rgb(0%,0%,0%);stroke-opacity:1;stroke-miterlimit:2;" d="M 166.898438 443.980469 L 173.898438 443.980469 L 173.898438 454.980469 L 166.898438 454.980469 Z M 166.898438 443.980469 "/>
<path style="fill:none;stroke-width:1;stroke-linecap:round;stroke-linejoin:miter;stroke:rgb(0%,0%,0%);stroke-opacity:1;stroke-miterlimit:2;" d="M 176.898438 443.980469 L 183.898438 443.980469 L 183.898438 454.980469 L 176.898438 454.980469 Z M 176.898438 443.980469 "/>
<path style="fill:none;stroke-width:1;stroke-linecap:round;stroke-linejoin:miter;stroke:rgb(0%,0%,0%);stroke-opacity:1;stroke-miterlimit:2;" d="M 252.898438 443.980469 L 259.898438 443.980469 L 259.898438 454.980469 L 252.898438 454.980469 Z M 252.898438 443.980469 "/>
<path style="fill:none;stroke-width:1;stroke-linecap:round;stroke-linejoin:miter;stroke:rgb(0%,0%,0%);stroke-opacity:1;stroke-miterlimit:2;" d="M 262.898438 443.980469 L 269.898438 443.980469 L 269.898438 454.980469 L 262.898438 454.980469 Z M 262.898438 443.980469 "/>
<path style="fill:none;stroke-width:1;stroke-linecap:round;stroke-linejoin:miter;stroke:rgb(0%,0%,0%);stroke-opacity:1;stroke-miterlimit:2;" d="M 272.898438 443.980469 L 279.898438 443.980469 L 279.898438 454.980469 L 272.898438 454.980469 Z M 272.898438 443.980469 "/>
<path style="fill:none;stroke-width:1;stroke-linecap:round;stroke-linejoin:miter;stroke:rgb(0%,0%,0%);stroke-opacity:1;stroke-miterlimit:2;" d="M 348.898438 443.980469 L 355.898438 443.980469 L 355.898438 454.980469 L 348.898438 454.980469 Z M 348.898438 443.980469 "/>
<path style="fill:none;stroke-width:1;stroke-linecap:round;stroke-linejoin:miter;stroke:rgb(0%,0%,0%);stroke-opacity:1;stroke-miterlimit:2;" d="M 358.898438 443.980469 L 365.898438 443.980469 L 365.898438 454.980469 L 358.898438 454.980469 Z M 358.898438 443.980469 "/>
<path style="fill:none;stroke-width:1;stroke-linecap:round;stroke-linejoin:miter;stroke:rgb(0%,0%,0%);stroke-opacity:1;stroke-miterlimit:2;" d="M 368.898438 443.980469 L 375.898438 443.980469 L 375.898438 454.980469 L 368.898438 454.980469 Z M 368.898438 443.980469 "/>
<path style="fill:none;stroke-width:1;stroke-linecap:round;stroke-linejoin:miter;stroke:rgb(0%,0%,0%);stroke-opacity:1;stroke-miterlimit:2;" d="M 444.898438 443.980469 L 451.898438 443.980469 L 451.898438 454.980469 L 444.898438 454.980469 Z M 444.898438 443.980469 "/>
<path style="fill:none;stroke-width:1;stroke-linecap:round;stroke-linejoin:miter;stroke:rgb(0%,0%,0%);stroke-opacity:1;stroke-miterlimit:2;" d="M 454.898438 443.980469 L 461.898438 443.980469 L 461.898438 454.980469 L 454.898438 454.980469 Z M 454.898438 443.980469 "/>
<path style="fill:none;stroke-width:1;stroke-linecap:round;stroke-linejoin:miter;stroke:rgb(0%,0%,0%);stroke-opacity:1;stroke-miterlimit:2;" d="M 464.898438 443.980469 L 471.898438 443.980469 L 471.898438 454.980469 L 464.898438 454.980469 Z M 464.898438 443.980469 "/>
<path style="fill:none;stroke-width:0.75;stroke-linecap:round;stroke-linejoin:round;stroke:rgb(0%,0%,0%);stroke-opacity:1;stroke-miterlimit:10;" d="M 59.039062 416.800781 L 59.039062 72.800781 "/>
<path style="fill:none;stroke-width:0.75;stroke-linecap:round;stroke-linejoin:round;stroke:rgb(0%,0%,0%);stroke-opacity:1;stroke-miterlimit:10;" d="M 59.039062 416.800781 L 51.839844 416.800781 "/>
<path style="fill:none;stroke-width:0.75;stroke-linecap:round;stroke-linejoin:round;stroke:rgb(0%,0%,0%);stroke-opacity:1;stroke-miterlimit:10;" d="M 59.039062 330.800781 L 51.839844 330.800781 "/>
<path style="fill:none;stroke-width:0.75;stroke-linecap:round;stroke-linejoin:round;stroke:rgb(0%,0%,0%);stroke-opacity:1;stroke-miterlimit:10;" d="M 59.039062 244.800781 L 51.839844 244.800781 "/>
<path style="fill:none;stroke-width:0.75;stroke-linecap:round;stroke-linejoin:round;stroke:rgb(0%,0%,0%);stroke-opacity:1;stroke-miterlimit:10;" d="M 59.039062 158.800781 L 51.839844 158.800781 "/>
<path style="fill:none;stroke-width:0.75;stroke-linecap:round;stroke-linejoin:round;stroke:rgb(0%,0%,0%);stroke-opacity:1;stroke-miterlimit:10;" d="M 59.039062 72.800781 L 51.839844 72.800781 "/>
<path style="fill:none;stroke-width:1;stroke-linecap:round;stroke-linejoin:miter;stroke:rgb(0%,0%,0%);stroke-opacity:1;stroke-miterlimit:2;" d="M -430.300781 29.261719 L -423.300781 29.261719 L -423.300781 40.261719 L -430.300781 40.261719 Z M -430.300781 29.261719 " transform="matrix(0.000000000000000061,-1,1,0.000000000000000061,0,0)"/>
<path style="fill:none;stroke-width:1;stroke-linecap:round;stroke-linejoin:miter;stroke:rgb(0%,0%,0%);stroke-opacity:1;stroke-miterlimit:2;" d="M -420.300781 29.261719 L -413.300781 29.261719 L -413.300781 40.261719 L -420.300781 40.261719 Z M -420.300781 29.261719 " transform="matrix(0.000000000000000061,-1,1,0.000000000000000061,0,0)"/>
<path style="fill:none;stroke-width:1;stroke-linecap:round;stroke-linejoin:miter;stroke:rgb(0%,0%,0%);stroke-opacity:1;stroke-miterlimit:2;" d="M -410.300781 29.261719 L -403.300781 29.261719 L -403.300781 40.261719 L -410.300781 40.261719 Z M -410.300781 29.261719 " transform="matrix(0.000000000000000061,-1,1,0.000000000000000061,0,0)"/>
<path style="fill:none;stroke-width:1;stroke-linecap:round;stroke-linejoin:miter;stroke:rgb(0%,0%,0%);stroke-opacity:1;stroke-miterlimit:2;" d="M -344.300781 29.261719 L -337.300781 29.261719 L -337.300781 40.261719 L -344.300781 40.261719 Z M -344.300781 29.261719 " transform="matrix(0.000000000000000061,-1,1,0.000000000000000061,0,0)"/>
<path style="fill:none;stroke-width:1;stroke-linecap:round;stroke-linejoin:miter;stroke:rgb(0%,0%,0%);stroke-opacity:1;stroke-miterlimit:2;" d="M -334.300781 29.261719 L -327.300781 29.261719 L -327.300781 40.261719 L -334.300781 40.261719 Z M -334.300781 29.261719 " transform="matrix(0.000000000000000061,-1,1,0.000000000000000061,0,0)"/>
<path style="fill:none;stroke-width:1;stroke-linecap:round;stroke-linejoin:miter;stroke:rgb(0%,0%,0%);stroke-opacity:1;stroke-miterlimit:2;" d="M -324.300781 29.261719 L -317.300781 29.261719 L -317.300781 40.261719 L -324.300781 40.261719 Z M -324.300781 29.261719 " transform="matrix(0.000000000000000061,-1,1,0.000000000000000061,0,0)"/>
<path style="fill:none;stroke-width:1;stroke-linecap:round;stroke-linejoin:miter;stroke:rgb(0%,0%,0%);stroke-opacity:1;stroke-miterlimit:2;" d="M -258.300781 29.261719 L -251.300781 29.261719 L -251.300781 40.261719 L -258.300781 40.261719 Z M -258.300781 29.261719 " transform="matrix(0.000000000000000061,-1,1,0.000000000000000061,0,0)"/>
<path style="fill:none;stroke-width:1;stroke-linecap:round;stroke-linejoin:miter;stroke:rgb(0%,0%,0%);stroke-opacity:1;stroke-miterlimit:2;" d="M -248.300781 29.261719 L -241.300781 29.261719 L -241.300781 40.261719 L -248.300781 40.261719 Z M -248.300781 29.261719 " transform="matrix(0.000000000000000061,-1,1,0.000000000000000061,0,0)"/>
<path style="fill:none;stroke-width:1;stroke-linecap:round;stroke-linejoin:miter;stroke:rgb(0%,0%,0%);stroke-opacity:1;stroke-miterlimit:2;" d="M -238.300781 29.261719 L -231.300781 29.261719 L -231.300781 40.261719 L -238.300781 40.261719 Z M -238.300781 29.261719 " transform="matrix(0.000000000000000061,-1,1,0.000000000000000061,0,0)"/>
<path style="fill:none;stroke-width:1;stroke-linecap:round;stroke-linejoin:miter;stroke:rgb(0%,0%,0%);stroke-opacity:1;stroke-miterlimit:2;" d="M -172.300781 29.261719 L -165.300781 29.261719 L -165.300781 40.261719 L -172.300781 40.261719 Z M -172.300781 29.261719 " transform="matrix(0.000000000000000061,-1,1,0.000000000000000061,0,0)"/>
<path style="fill:none;stroke-width:1;stroke-linecap:round;stroke-linejoin:miter;stroke:rgb(0%,0%,0%);stroke-opacity:1;stroke-miterlimit:2;" d="M -162.300781 29.261719 L -155.300781 29.261719 L -155.300781 40.261719 L -162.300781 40.261719 Z M -162.300781 29.261719 " transform="matrix(0.000000000000000061,-1,1,0.000000000000000061,0,0)"/>
<path style="fill:none;stroke-width:1;stroke-linecap:round;stroke-linejoin:miter;stroke:rgb(0%,0%,0%);stroke-opacity:1;stroke-miterlimit:2;" d="M -152.300781 29.261719 L -145.300781 29.261719 L -145.300781 40.261719 L -152.300781 40.261719 Z M -152.300781 29.261719 " transform="matrix(0.000000000000000061,-1,1,0.000000000000000061,0,0)"/>
<path style="fill:none;stroke-width:1;stroke-linecap:round;stroke-linejoin:miter;stroke:rgb(0%,0%,0%);stroke-opacity:1;stroke-miterlimit:2;" d="M -86.300781 29.261719 L -79.300781 29.261719 L -79.300781 40.261719 L -86.300781 40.261719 Z M -86.300781 29.261719 " transform="matrix(0.000000000000000061,-1,1,0.000000000000000061,0,0)"/>
<path style="fill:none;stroke-width:1;stroke-linecap:round;stroke-linejoin:miter;stroke:rgb(0%,0%,0%);stroke-opacity:1;stroke-miterlimit:2;" d="M -76.300781 29.261719 L -69.300781 29.261719 L -69.300781 40.261719 L -76.300781 40.261719 Z M -76.300781 29.261719 " transform="matrix(0.000000000000000061,-1,1,0.000000000000000061,0,0)"/>
<path style="fill:none;stroke-width:1;stroke-linecap:round;stroke-linejoin:miter;stroke:rgb(0%,0%,0%);stroke-opacity:1;stroke-miterlimit:2;" d="M -66.300781 29.261719 L -59.300781 29.261719 L -59.300781 40.261719 L -66.300781 40.261719 Z M -66.300781 29.261719 " transform="matrix(0.000000000000000061,-1,1,0.000000000000000061,0,0)"/>
<path style="fill:none;stroke-width:0.75;stroke-linecap:round;stroke-linejoin:round;stroke:rgb(0%,0%,0%);stroke-opacity:1;stroke-miterlimit:10;" d="M 59.039062 430.558594 L 473.761719 430.558594 L 473.761719 59.039062 L 59.039062 59.039062 L 59.039062 430.558594 "/>
<path style="fill:none;stroke-width:1;stroke-linecap:round;stroke-linejoin:miter;stroke:rgb(0%,0%,0%);stroke-opacity:1;stroke-miterlimit:2;" d="M 242.898438 472.78125 L 249.898438 472.78125 L 249.898438 483.78125 L 242.898438 483.78125 Z M 242.898438 472.78125 "/>
<path style="fill:none;stroke-width:1;stroke-linecap:round;stroke-linejoin:miter;stroke:rgb(0%,0%,0%);stroke-opacity:1;stroke-miterlimit:2;" d="M 252.898438 472.78125 L 259.898438 472.78125 L 259.898438 483.78125 L 252.898438 483.78125 Z M 252.898438 472.78125 "/>
<path style="fill:none;stroke-width:1;stroke-linecap:round;stroke-linejoin:miter;stroke:rgb(0%,0%,0%);stroke-opacity:1;stroke-miterlimit:2;" d="M 262.898438 472.78125 L 269.898438 472.78125 L 269.898438 483.78125 L 262.898438 483.78125 Z M 262.898438 472.78125 "/>
<path style="fill:none;stroke-width:1;stroke-linecap:round;stroke-linejoin:miter;stroke:rgb(0%,0%,0%);stroke-opacity:1;stroke-miterlimit:2;" d="M 272.898438 472.78125 L 279.898438 472.78125 L 279.898438 483.78125 L 272.898438 483.78125 Z M 272.898438 472.78125 "/>
<path style="fill:none;stroke-width:1;stroke-linecap:round;stroke-linejoin:miter;stroke:rgb(0%,0%,0%);stroke-opacity:1;stroke-miterlimit:2;" d="M 282.898438 472.78125 L 289.898438 472.78125 L 289.898438 483.78125 L 282.898438 483.78125 Z M 282.898438 472.78125 "/>
<path style="fill:none;stroke-width:1;stroke-linecap:round;stroke-linejoin:miter;stroke:rgb(0%,0%,0%);stroke-opacity:1;stroke-miterlimit:2;" d="M -248.300781 0.460938 L -241.300781 0.460938 L -241.300781 11.460938 L -248.300781 11.460938 Z M -248.300781 0.460938 " transform="matrix(0.000000000000000061,-1,1,0.000000000000000061,0,0)"/>
</g>
</svg>
